<?xml version="1.0" standalone="no"?><!DOCTYPE svg PUBLIC "-//W3C//DTD SVG 1.1//EN" "http://www.w3.org/Graphics/SVG/1.1/DTD/svg11.dtd"><svg t="1521172904048" class="icon" style="" viewBox="0 0 1024 1024" version="1.1" xmlns="http://www.w3.org/2000/svg" p-id="1780" xmlns:xlink="http://www.w3.org/1999/xlink" width="200" height="200"><defs><style type="text/css"></style></defs><path d="M736.786091 961.571159 287.212886 961.571159c-61.974493 0-112.391766-50.417273-112.391766-112.391766L174.821119 249.749134c0-61.975517 50.417273-112.39279 112.391766-112.39279l449.573205 0c61.975517 0 112.391766 50.417273 112.391766 112.39279l0 449.572182c0 20.706601-16.756639 37.464263-37.462217 37.464263-20.709671 0-37.464263-16.757662-37.464263-37.464263L774.251378 249.749134c0-20.706601-16.794501-37.464263-37.464263-37.464263L287.212886 212.284871c-20.669762 0-37.46324 16.757662-37.46324 37.464263l0 599.430258c0 20.632923 16.793478 37.46324 37.46324 37.46324l449.573205 0c20.669762 0 37.464263-16.830317 37.464263-37.46324 0-20.706601 16.754592-37.464263 37.464263-37.464263 20.705578 0 37.462217 16.757662 37.462217 37.464263C849.177857 911.154909 798.761608 961.571159 736.786091 961.571159" p-id="1781" fill="#d81e06"></path><path d="M362.142435 287.213397c-20.706601 0-37.464263-16.754592-37.464263-37.464263L324.678172 99.892081c0-20.706601 16.757662-37.464263 37.464263-37.464263 20.708648 0 37.46324 16.757662 37.46324 37.464263l0 149.857053C399.605675 270.458805 382.851083 287.213397 362.142435 287.213397" p-id="1782" fill="#d81e06"></path><path d="M661.858588 287.213397c-20.709671 0-37.464263-16.754592-37.464263-37.464263L624.394325 99.892081c0-20.706601 16.754592-37.464263 37.464263-37.464263 20.705578 0 37.462217 16.757662 37.462217 37.464263l0 149.857053C699.321828 270.458805 682.565189 287.213397 661.858588 287.213397" p-id="1783" fill="#d81e06"></path><path d="M774.250354 399.606187 249.749646 399.606187c-20.706601 0-37.464263-16.754592-37.464263-37.464263 0-20.706601 16.757662-37.464263 37.464263-37.464263l524.501732 0c20.705578 0 37.464263 16.757662 37.464263 37.464263C811.715641 382.851595 794.956955 399.606187 774.250354 399.606187" p-id="1784" fill="#d81e06"></path><path d="M661.858588 549.465287 362.142435 549.465287c-20.706601 0-37.464263-16.757662-37.464263-37.464263 0-20.708648 16.757662-37.464263 37.464263-37.464263l299.717176 0c20.705578 0 37.462217 16.755616 37.462217 37.464263C699.321828 532.707624 682.565189 549.465287 661.858588 549.465287" p-id="1785" fill="#d81e06"></path><path d="M586.929038 699.322339 362.142435 699.322339c-20.706601 0-37.464263-16.757662-37.464263-37.464263 0-20.708648 16.757662-37.46324 37.464263-37.46324l224.787626 0c20.705578 0 37.464263 16.754592 37.464263 37.46324C624.394325 682.564677 607.635639 699.322339 586.929038 699.322339" p-id="1786" fill="#d81e06"></path><path d="M512.000512 287.213397c-20.707624 0-37.46324-16.754592-37.46324-37.464263L474.537272 99.892081c0-20.706601 16.755616-37.464263 37.46324-37.464263s37.464263 16.757662 37.464263 37.464263l0 149.857053C549.464775 270.458805 532.708136 287.213397 512.000512 287.213397" p-id="1787" fill="#d81e06"></path></svg>