<?xml version="1.0" standalone="no"?><!DOCTYPE svg PUBLIC "-//W3C//DTD SVG 1.1//EN" "http://www.w3.org/Graphics/SVG/1.1/DTD/svg11.dtd"><svg t="1534902597541" class="icon" style="" viewBox="0 0 1024 1024" version="1.1" xmlns="http://www.w3.org/2000/svg" p-id="117616" xmlns:xlink="http://www.w3.org/1999/xlink" width="200" height="200"><defs><style type="text/css"></style></defs><path d="M355.3 351.9m-224.1 0a224.1 224.1 0 1 0 448.2 0 224.1 224.1 0 1 0-448.2 0Z" fill="#d81e06" p-id="117617"></path><path d="M511.3 512.2m-448 0a448 448 0 1 0 896 0 448 448 0 1 0-896 0Z" fill="#d81e06" p-id="117618" data-spm-anchor-id="a313x.7781069.0.i15" class=""></path><path d="M512.5 512.5m-384.7 0a384.7 384.7 0 1 0 769.4 0 384.7 384.7 0 1 0-769.4 0Z" fill="#d81e06" p-id="117619" data-spm-anchor-id="a313x.7781069.0.i14" class=""></path><path d="M511 511.9m-191.9 0a191.9 191.9 0 1 0 383.8 0 191.9 191.9 0 1 0-383.8 0Z" fill="#ffffff" p-id="117620" data-spm-anchor-id="a313x.7781069.0.i13" class="selected"></path></svg>