<?xml version="1.0" standalone="no"?><!DOCTYPE svg PUBLIC "-//W3C//DTD SVG 1.1//EN" "http://www.w3.org/Graphics/SVG/1.1/DTD/svg11.dtd"><svg t="1526350089182" class="icon" style="" viewBox="0 0 1024 1024" version="1.1" xmlns="http://www.w3.org/2000/svg" p-id="3701" xmlns:xlink="http://www.w3.org/1999/xlink" width="200" height="200"><defs><style type="text/css"></style></defs><path d="M384 938.666667a42.666667 42.666667 0 0 1-42.666667-42.666667v-128H170.666667a85.333333 85.333333 0 0 1-85.333334-85.333333V170.666667a85.333333 85.333333 0 0 1 85.333334-85.333334h682.666666a85.333333 85.333333 0 0 1 85.333334 85.333334v512a85.333333 85.333333 0 0 1-85.333334 85.333333h-260.266666l-157.866667 158.293333c-8.533333 8.106667-19.2 12.373333-29.866667 12.373334H384M213.333333 213.333333v85.333334h597.333334V213.333333H213.333333m0 170.666667v85.333333h341.333334V384H213.333333m0 170.666667v85.333333h426.666667v-85.333333H213.333333z" fill="#d81e06" p-id="3702"></path></svg>