<?xml version="1.0" standalone="no"?><!DOCTYPE svg PUBLIC "-//W3C//DTD SVG 1.1//EN" "http://www.w3.org/Graphics/SVG/1.1/DTD/svg11.dtd"><svg t="1535095861776" class="icon" style="" viewBox="0 0 1024 1024" version="1.1" xmlns="http://www.w3.org/2000/svg" p-id="10114" xmlns:xlink="http://www.w3.org/1999/xlink" width="200" height="200"><defs><style type="text/css"></style></defs><path d="M8.677966 208.271186h1006.644068v815.728814H8.677966z" fill="#E7ECED" p-id="10115"></path><path d="M572.97139 26.172746l-18.501424 29.383593c101.028881 63.592136 294.547525 166.981424 296.49139 168.02278l16.331932-30.615865c-1.943864-1.024-194.369085-103.840542-294.321898-166.790508zM156.706712 192.963254l16.331932 30.615865c1.943864-1.041356 195.462508-104.430644 296.49139-168.02278l-18.501424-29.383593c-99.952814 62.93261-292.378034 165.766508-294.321898 166.790508z" fill="#7383BF" p-id="10116"></path><path d="M390.508475 485.966102m-17.355933 0a17.355932 17.355932 0 1 0 34.711865 0 17.355932 17.355932 0 1 0-34.711865 0Z" fill="#424A60" p-id="10117"></path><path d="M512 485.966102m-17.355932 0a17.355932 17.355932 0 1 0 34.711864 0 17.355932 17.355932 0 1 0-34.711864 0Z" fill="#424A60" p-id="10118"></path><path d="M633.491525 485.966102m-17.355932 0a17.355932 17.355932 0 1 0 34.711865 0 17.355932 17.355932 0 1 0-34.711865 0Z" fill="#424A60" p-id="10119"></path><path d="M754.983051 485.966102m-17.355932 0a17.355932 17.355932 0 1 0 34.711864 0 17.355932 17.355932 0 1 0-34.711864 0Z" fill="#424A60" p-id="10120"></path><path d="M876.474576 485.966102m-17.355932 0a17.355932 17.355932 0 1 0 34.711864 0 17.355932 17.355932 0 1 0-34.711864 0Z" fill="#424A60" p-id="10121"></path><path d="M147.525424 624.813559m-17.355932 0a17.355932 17.355932 0 1 0 34.711864 0 17.355932 17.355932 0 1 0-34.711864 0Z" fill="#EFCE4A" p-id="10122"></path><path d="M269.016949 624.813559m-17.355932 0a17.355932 17.355932 0 1 0 34.711864 0 17.355932 17.355932 0 1 0-34.711864 0Z" fill="#ED7161" p-id="10123"></path><path d="M147.525424 485.966102m-17.355932 0a17.355932 17.355932 0 1 0 34.711864 0 17.355932 17.355932 0 1 0-34.711864 0Z" fill="#949493" p-id="10124"></path><path d="M269.016949 485.966102m-17.355932 0a17.355932 17.355932 0 1 0 34.711864 0 17.355932 17.355932 0 1 0-34.711864 0Z" fill="#949493" p-id="10125"></path><path d="M390.508475 624.813559m-17.355933 0a17.355932 17.355932 0 1 0 34.711865 0 17.355932 17.355932 0 1 0-34.711865 0Z" fill="#424A60" p-id="10126"></path><path d="M512 624.813559m-17.355932 0a17.355932 17.355932 0 1 0 34.711864 0 17.355932 17.355932 0 1 0-34.711864 0Z" fill="#424A60" p-id="10127"></path><path d="M633.491525 624.813559m-17.355932 0a17.355932 17.355932 0 1 0 34.711865 0 17.355932 17.355932 0 1 0-34.711865 0Z" fill="#424A60" p-id="10128"></path><path d="M754.983051 624.813559m-17.355932 0a17.355932 17.355932 0 1 0 34.711864 0 17.355932 17.355932 0 1 0-34.711864 0Z" fill="#424A60" p-id="10129"></path><path d="M876.474576 624.813559m-17.355932 0a17.355932 17.355932 0 1 0 34.711864 0 17.355932 17.355932 0 1 0-34.711864 0Z" fill="#424A60" p-id="10130"></path><path d="M147.525424 746.305085m-17.355932 0a17.355932 17.355932 0 1 0 34.711864 0 17.355932 17.355932 0 1 0-34.711864 0Z" fill="#EFCE4A" p-id="10131"></path><path d="M269.016949 746.305085m-17.355932 0a17.355932 17.355932 0 1 0 34.711864 0 17.355932 17.355932 0 1 0-34.711864 0Z" fill="#ED7161" p-id="10132"></path><path d="M390.508475 746.305085m-17.355933 0a17.355932 17.355932 0 1 0 34.711865 0 17.355932 17.355932 0 1 0-34.711865 0Z" fill="#424A60" p-id="10133"></path><path d="M512 746.305085m-17.355932 0a17.355932 17.355932 0 1 0 34.711864 0 17.355932 17.355932 0 1 0-34.711864 0Z" fill="#424A60" p-id="10134"></path><path d="M633.491525 746.305085m-17.355932 0a17.355932 17.355932 0 1 0 34.711865 0 17.355932 17.355932 0 1 0-34.711865 0Z" fill="#424A60" p-id="10135"></path><path d="M754.983051 746.305085m-17.355932 0a17.355932 17.355932 0 1 0 34.711864 0 17.355932 17.355932 0 1 0-34.711864 0Z" fill="#424A60" p-id="10136"></path><path d="M876.474576 746.305085m-17.355932 0a17.355932 17.355932 0 1 0 34.711864 0 17.355932 17.355932 0 1 0-34.711864 0Z" fill="#424A60" p-id="10137"></path><path d="M754.983051 885.152542m-17.355932 0a17.355932 17.355932 0 1 0 34.711864 0 17.355932 17.355932 0 1 0-34.711864 0Z" fill="#949493" p-id="10138"></path><path d="M876.474576 885.152542m-17.355932 0a17.355932 17.355932 0 1 0 34.711864 0 17.355932 17.355932 0 1 0-34.711864 0Z" fill="#949493" p-id="10139"></path><path d="M147.525424 885.152542m-17.355932 0a17.355932 17.355932 0 1 0 34.711864 0 17.355932 17.355932 0 1 0-34.711864 0Z" fill="#EFCE4A" p-id="10140"></path><path d="M269.016949 885.152542m-17.355932 0a17.355932 17.355932 0 1 0 34.711864 0 17.355932 17.355932 0 1 0-34.711864 0Z" fill="#ED7161" p-id="10141"></path><path d="M390.508475 885.152542m-17.355933 0a17.355932 17.355932 0 1 0 34.711865 0 17.355932 17.355932 0 1 0-34.711865 0Z" fill="#424A60" p-id="10142"></path><path d="M512 885.152542m-17.355932 0a17.355932 17.355932 0 1 0 34.711864 0 17.355932 17.355932 0 1 0-34.711864 0Z" fill="#424A60" p-id="10143"></path><path d="M633.491525 885.152542m-17.355932 0a17.355932 17.355932 0 1 0 34.711865 0 17.355932 17.355932 0 1 0-34.711865 0Z" fill="#424A60" p-id="10144"></path><path d="M512 86.779661m-69.423729 0a69.423729 69.423729 0 1 0 138.847458 0 69.423729 69.423729 0 1 0-138.847458 0Z" fill="#F7E6A1" p-id="10145"></path><path d="M8.677966 208.271186h1006.644068v121.491526H8.677966z" fill="#424A60" p-id="10146"></path></svg>